<?xml version="1.0" encoding="utf-8"?>
<!-- Generator: Adobe Illustrator 27.5.0, SVG Export Plug-In . SVG Version: 6.00 Build 0)  -->
<svg version="1.1" xmlns="http://www.w3.org/2000/svg" xmlns:xlink="http://www.w3.org/1999/xlink" x="0px" y="0px"
	 viewBox="0 0 841.89 566.929" style="enable-background:new 0 0 841.89 566.929;" xml:space="preserve">
<g id="BG">
	<rect y="0" style="fill:#FFFFFF;" width="841.89" height="566.929"/>
</g>
<g id="graphics">
	<g>
		<g>
			<path style="fill:#686868;" d="M300.134,429.955c-0.098-0.337-0.193-0.652-0.29-0.942c-0.098-0.289-0.182-0.651-0.254-1.087
				c-0.072-0.435-0.12-0.99-0.145-1.666c-0.025-0.677-0.036-1.522-0.036-2.538v-7.972c0-2.366-0.411-4.033-1.232-5
				c-0.821-0.966-2.15-1.449-3.985-1.449h-2.755v20.654h-7.972v-50.731h12.03c4.155,0,7.162,0.968,9.023,2.898
				c1.859,1.934,2.79,4.857,2.79,8.77v3.986c0,5.218-1.739,8.649-5.218,10.291c2.029,0.822,3.418,2.163,4.167,4.022
				c0.749,1.861,1.123,4.12,1.123,6.776v7.827c0,1.257,0.048,2.355,0.146,3.297c0.096,0.942,0.337,1.897,0.725,2.863H300.134z
				 M291.436,386.472v15.581h3.117c1.496,0,2.669-0.386,3.515-1.159c0.845-0.772,1.268-2.175,1.268-4.204v-5.001
				c0-1.835-0.326-3.163-0.978-3.985c-0.652-0.821-1.68-1.231-3.08-1.231H291.436z"/>
			<path style="fill:#686868;" d="M320.571,400.604h10.943v7.247h-10.943v14.857h13.77v7.247h-21.742v-50.731h21.742v7.248h-13.77
				V400.604z"/>
			<path style="fill:#686868;" d="M365.069,429.955h-8.045l-1.377-9.204h-9.784l-1.376,9.204h-7.32l8.117-50.731h11.668
				L365.069,429.955z M346.878,413.866h7.683l-3.841-25.655L346.878,413.866z"/>
			<path style="fill:#686868;" d="M368.766,379.224h7.972v43.484h13.118v7.247h-21.09V379.224z"/>
			<path style="fill:#686868;" d="M412.538,400.604h10.943v7.247h-10.943v14.857h13.771v7.247h-21.742v-50.731h21.742v7.248h-13.771
				V400.604z"/>
			<path style="fill:#686868;" d="M430.221,391.4c0-4.107,0.979-7.259,2.936-9.458c1.957-2.197,4.892-3.297,8.806-3.297
				c3.913,0,6.849,1.1,8.806,3.297c1.956,2.199,2.935,5.352,2.935,9.458v1.595h-7.537v-2.103c0-1.836-0.351-3.127-1.05-3.877
				c-0.702-0.748-1.68-1.123-2.936-1.123c-1.257,0-2.236,0.375-2.936,1.123c-0.701,0.75-1.051,2.041-1.051,3.877
				c0,1.74,0.386,3.275,1.159,4.603c0.773,1.329,1.74,2.585,2.9,3.768c1.159,1.185,2.403,2.367,3.732,3.551
				c1.328,1.185,2.572,2.477,3.732,3.878c1.159,1.401,2.126,2.996,2.898,4.783c0.773,1.787,1.16,3.89,1.16,6.306
				c0,4.107-1.004,7.259-3.008,9.457c-2.005,2.199-4.965,3.298-8.878,3.298c-3.914,0-6.874-1.099-8.878-3.298
				c-2.006-2.198-3.008-5.35-3.008-9.457v-3.117h7.537v3.624c0,1.837,0.374,3.116,1.124,3.841c0.748,0.725,1.75,1.087,3.008,1.087
				c1.255,0,2.258-0.362,3.007-1.087c0.748-0.725,1.123-2.004,1.123-3.841c0-1.739-0.388-3.273-1.159-4.602
				c-0.773-1.329-1.739-2.585-2.898-3.77c-1.16-1.184-2.404-2.366-3.732-3.551c-1.33-1.184-2.573-2.476-3.732-3.877
				c-1.16-1.401-2.127-2.995-2.899-4.784C430.607,395.918,430.221,393.815,430.221,391.4z"/>
			<path style="fill:#686868;" d="M456.021,379.224h24.642v7.248h-8.335v43.483h-7.973v-43.483h-8.334V379.224z"/>
			<path style="fill:#686868;" d="M507.188,429.955h-8.045l-1.377-9.204h-9.784l-1.377,9.204h-7.32l8.117-50.731h11.669
				L507.188,429.955z M488.997,413.866h7.682l-3.842-25.655L488.997,413.866z"/>
			<path style="fill:#686868;" d="M508.564,379.224h24.641v7.248h-8.334v43.483h-7.973v-43.483h-8.334V379.224z"/>
			<path style="fill:#686868;" d="M544.656,400.604h10.942v7.247h-10.942v14.857h13.768v7.247h-21.741v-50.731h21.741v7.248h-13.768
				V400.604z"/>
		</g>
	</g>
	<g>
		<g>
			<path style="fill:#99A7AA;" d="M294.512,449.046v3.134h-1.903c-0.171-0.649-0.38-1.162-0.63-1.537
				c-0.25-0.374-0.54-0.637-0.869-0.787c-0.33-0.149-0.74-0.224-1.23-0.224c-0.7,0-1.319,0.224-1.858,0.674
				c-0.54,0.45-0.968,1.134-1.282,2.053c-0.314,0.921-0.472,2.045-0.472,3.373c0,0.851,0.06,1.627,0.18,2.331
				c0.119,0.705,0.324,1.307,0.614,1.807c0.29,0.5,0.675,0.89,1.154,1.169c0.48,0.28,1.074,0.42,1.784,0.42
				c0.689,0,1.331-0.135,1.926-0.405c0.595-0.27,1.212-0.744,1.852-1.424l0.855,0.989c-0.51,0.561-0.959,0.992-1.35,1.297
				c-0.39,0.306-0.807,0.56-1.251,0.765c-0.445,0.205-0.885,0.355-1.319,0.449c-0.435,0.096-0.907,0.143-1.417,0.143
				c-1.889,0-3.333-0.627-4.332-1.881c-0.999-1.254-1.499-3.065-1.499-5.434c0-1.479,0.28-2.791,0.84-3.935
				c0.56-1.145,1.344-2.027,2.354-2.646c1.009-0.619,2.174-0.93,3.492-0.93c0.819,0,1.576,0.048,2.272,0.143
				C293.115,448.685,293.813,448.837,294.512,449.046z"/>
			<path style="fill:#99A7AA;" d="M303.4,463.272c-2.078,0-3.664-0.611-4.759-1.836c-1.095-1.224-1.642-3.035-1.642-5.435
				c0-1.647,0.287-3.042,0.862-4.182c0.574-1.139,1.361-1.986,2.361-2.54c0.999-0.556,2.138-0.833,3.417-0.833
				c2.139,0,3.758,0.622,4.857,1.866c1.1,1.245,1.649,3.031,1.649,5.359c0,1.659-0.275,3.058-0.825,4.197
				c-0.549,1.14-1.329,1.991-2.338,2.556C305.974,462.989,304.78,463.272,303.4,463.272z M299.833,455.687
				c0,2.059,0.327,3.641,0.982,4.744c0.654,1.104,1.591,1.657,2.81,1.657c0.67,0,1.24-0.162,1.71-0.487
				c0.469-0.324,0.852-0.762,1.146-1.311c0.295-0.55,0.507-1.186,0.637-1.912c0.13-0.724,0.195-1.48,0.195-2.27
				c0-1.47-0.163-2.689-0.487-3.658c-0.325-0.969-0.767-1.681-1.326-2.137c-0.561-0.454-1.2-0.681-1.919-0.681
				c-1.21,0-2.137,0.523-2.781,1.573C300.155,452.254,299.833,453.749,299.833,455.687z"/>
			<path style="fill:#99A7AA;" d="M317.222,451.01l0.21,0.061c0.6-0.601,1.092-1.052,1.477-1.358
				c0.385-0.305,0.757-0.549,1.117-0.733c0.359-0.185,0.696-0.317,1.012-0.398c0.315-0.079,0.637-0.119,0.967-0.119
				c0.999,0,1.813,0.23,2.443,0.689c0.629,0.46,1.063,1.164,1.304,2.113c0.75-0.759,1.356-1.318,1.821-1.679
				c0.465-0.359,0.939-0.637,1.424-0.832c0.484-0.194,1.007-0.292,1.566-0.292c0.67,0,1.247,0.098,1.731,0.292
				c0.484,0.195,0.895,0.495,1.229,0.9c0.335,0.404,0.579,0.911,0.734,1.521c0.155,0.609,0.232,1.43,0.232,2.458v5.652
				c0,0.759,0.024,1.283,0.075,1.574c0.05,0.289,0.122,0.514,0.217,0.674c0.096,0.159,0.237,0.297,0.428,0.412
				c0.189,0.115,0.51,0.232,0.959,0.353v0.734h-5.891v-0.734c0.39-0.12,0.669-0.225,0.839-0.315c0.17-0.091,0.313-0.215,0.428-0.375
				c0.115-0.16,0.204-0.408,0.27-0.742c0.065-0.335,0.098-0.842,0.098-1.522v-3.928c0-0.85-0.022-1.551-0.067-2.106
				c-0.045-0.554-0.115-0.996-0.21-1.326c-0.096-0.329-0.21-0.589-0.345-0.779c-0.135-0.189-0.287-0.355-0.457-0.494
				c-0.171-0.141-0.37-0.251-0.6-0.33c-0.23-0.081-0.535-0.12-0.915-0.12c-0.4,0-0.771,0.08-1.116,0.239
				c-0.345,0.16-0.72,0.431-1.124,0.81c-0.405,0.381-0.697,0.763-0.877,1.147c-0.181,0.384-0.271,0.837-0.271,1.356v5.472
				c0,0.759,0.025,1.283,0.075,1.574c0.05,0.289,0.122,0.514,0.217,0.674c0.096,0.159,0.237,0.297,0.428,0.412
				c0.19,0.115,0.51,0.232,0.96,0.353v0.734h-5.892v-0.734c0.39-0.12,0.67-0.225,0.84-0.315c0.17-0.091,0.311-0.215,0.427-0.375
				c0.115-0.16,0.205-0.408,0.27-0.742c0.065-0.335,0.098-0.842,0.098-1.522v-3.928c0-0.889-0.025-1.614-0.074-2.173
				c-0.051-0.561-0.128-1.01-0.232-1.35c-0.105-0.339-0.24-0.615-0.405-0.824c-0.165-0.21-0.332-0.37-0.502-0.479
				c-0.17-0.11-0.37-0.192-0.6-0.248c-0.23-0.054-0.49-0.082-0.779-0.082c-0.41,0-0.795,0.093-1.154,0.277
				c-0.36,0.186-0.728,0.452-1.103,0.802c-0.374,0.351-0.657,0.714-0.847,1.095c-0.189,0.38-0.285,0.789-0.285,1.228v5.622
				c0,0.569,0.016,1.004,0.046,1.304c0.029,0.299,0.077,0.534,0.142,0.704c0.065,0.171,0.147,0.308,0.248,0.412
				c0.1,0.105,0.242,0.205,0.427,0.3c0.185,0.096,0.463,0.192,0.832,0.293v0.734h-5.876v-0.734c0.38-0.12,0.652-0.225,0.817-0.315
				c0.164-0.091,0.307-0.215,0.427-0.375c0.12-0.16,0.21-0.405,0.27-0.734c0.061-0.33,0.09-0.845,0.09-1.545v-6.535
				c0-0.639-0.01-1.154-0.029-1.544c-0.021-0.39-0.09-0.702-0.21-0.938c-0.12-0.234-0.303-0.409-0.547-0.523
				c-0.245-0.116-0.593-0.213-1.042-0.292v-0.795l3.508-0.136h0.914L317.222,451.01z"/>
			<path style="fill:#99A7AA;" d="M342.765,451.01l0.21,0.061c0.6-0.601,1.091-1.052,1.477-1.358
				c0.385-0.305,0.757-0.549,1.116-0.733c0.36-0.185,0.697-0.317,1.013-0.398c0.314-0.079,0.637-0.119,0.966-0.119
				c1,0,1.814,0.23,2.443,0.689c0.63,0.46,1.064,1.164,1.305,2.113c0.749-0.759,1.357-1.318,1.821-1.679
				c0.465-0.359,0.939-0.637,1.424-0.832c0.484-0.194,1.007-0.292,1.566-0.292c0.67,0,1.246,0.098,1.731,0.292
				c0.484,0.195,0.895,0.495,1.229,0.9c0.335,0.404,0.58,0.911,0.735,1.521c0.154,0.609,0.232,1.43,0.232,2.458v5.652
				c0,0.759,0.024,1.283,0.074,1.574c0.051,0.289,0.123,0.514,0.218,0.674c0.095,0.159,0.237,0.297,0.427,0.412
				c0.19,0.115,0.511,0.232,0.96,0.353v0.734h-5.891v-0.734c0.39-0.12,0.669-0.225,0.839-0.315c0.17-0.091,0.313-0.215,0.428-0.375
				c0.114-0.16,0.204-0.408,0.27-0.742c0.065-0.335,0.098-0.842,0.098-1.522v-3.928c0-0.85-0.023-1.551-0.067-2.106
				c-0.046-0.554-0.115-0.996-0.211-1.326c-0.095-0.329-0.209-0.589-0.344-0.779c-0.136-0.189-0.288-0.355-0.457-0.494
				c-0.171-0.141-0.37-0.251-0.601-0.33c-0.229-0.081-0.534-0.12-0.914-0.12c-0.399,0-0.772,0.08-1.116,0.239
				c-0.346,0.16-0.72,0.431-1.125,0.81c-0.404,0.381-0.696,0.763-0.877,1.147c-0.18,0.384-0.27,0.837-0.27,1.356v5.472
				c0,0.759,0.024,1.283,0.075,1.574c0.05,0.289,0.122,0.514,0.217,0.674c0.096,0.159,0.237,0.297,0.428,0.412
				c0.189,0.115,0.51,0.232,0.959,0.353v0.734h-5.891v-0.734c0.39-0.12,0.669-0.225,0.839-0.315c0.17-0.091,0.313-0.215,0.428-0.375
				c0.114-0.16,0.204-0.408,0.27-0.742c0.065-0.335,0.098-0.842,0.098-1.522v-3.928c0-0.889-0.025-1.614-0.075-2.173
				c-0.05-0.561-0.127-1.01-0.232-1.35c-0.104-0.339-0.239-0.615-0.404-0.824c-0.165-0.21-0.333-0.37-0.502-0.479
				c-0.17-0.11-0.37-0.192-0.6-0.248c-0.229-0.054-0.489-0.082-0.779-0.082c-0.409,0-0.794,0.093-1.153,0.277
				c-0.36,0.186-0.727,0.452-1.102,0.802c-0.375,0.351-0.657,0.714-0.847,1.095c-0.189,0.38-0.285,0.789-0.285,1.228v5.622
				c0,0.569,0.016,1.004,0.045,1.304c0.03,0.299,0.077,0.534,0.143,0.704c0.065,0.171,0.147,0.308,0.248,0.412
				c0.1,0.105,0.241,0.205,0.427,0.3c0.184,0.096,0.462,0.192,0.832,0.293v0.734h-5.876v-0.734c0.38-0.12,0.652-0.225,0.817-0.315
				c0.164-0.091,0.307-0.215,0.427-0.375c0.12-0.16,0.21-0.405,0.27-0.734c0.06-0.33,0.09-0.845,0.09-1.545v-6.535
				c0-0.639-0.01-1.154-0.029-1.544c-0.02-0.39-0.091-0.702-0.21-0.938c-0.12-0.234-0.303-0.409-0.547-0.523
				c-0.245-0.116-0.593-0.213-1.042-0.292v-0.795l3.507-0.136h0.915L342.765,451.01z"/>
			<path style="fill:#99A7AA;" d="M376.237,460.483c-0.64,0.67-1.227,1.194-1.762,1.574c-0.535,0.381-1.122,0.678-1.761,0.892
				c-0.64,0.215-1.345,0.322-2.114,0.322c-2.059,0-3.612-0.617-4.662-1.851c-1.049-1.234-1.574-3.056-1.574-5.464
				c0-1.489,0.268-2.804,0.803-3.942c0.534-1.14,1.297-2.02,2.286-2.639c0.989-0.619,2.128-0.93,3.417-0.93
				c1.01,0,1.869,0.16,2.578,0.48c0.71,0.319,1.277,0.757,1.702,1.312c0.424,0.554,0.754,1.254,0.989,2.099
				c0.234,0.844,0.367,1.946,0.397,3.306h-9.444v0.27c0,1.179,0.133,2.171,0.397,2.976c0.265,0.805,0.699,1.434,1.304,1.889
				c0.605,0.454,1.393,0.682,2.361,0.682c0.819,0,1.557-0.152,2.211-0.457c0.654-0.305,1.307-0.802,1.957-1.491L376.237,460.483z
				 M373.719,454.398c-0.06-1.08-0.195-1.962-0.405-2.646c-0.209-0.684-0.524-1.209-0.944-1.574
				c-0.42-0.363-0.969-0.546-1.648-0.546c-1.029,0-1.852,0.411-2.466,1.236c-0.614,0.824-0.977,2.001-1.087,3.53H373.719z"/>
			<path style="fill:#99A7AA;" d="M383.282,451.19l0.21,0.045c0.549-0.67,1.059-1.197,1.529-1.581
				c0.469-0.386,0.976-0.683,1.522-0.892c0.544-0.21,1.161-0.316,1.851-0.316c0.58,0,1.104,0.03,1.574,0.091v3.447h-1.694
				c-0.239-0.54-0.494-0.932-0.765-1.177c-0.27-0.244-0.64-0.366-1.109-0.366c-0.359,0-0.717,0.104-1.071,0.314
				c-0.354,0.209-0.697,0.514-1.026,0.914c-0.33,0.399-0.558,0.774-0.683,1.124c-0.125,0.35-0.188,0.765-0.188,1.244v5.247
				c0,0.909,0.055,1.536,0.165,1.881c0.109,0.345,0.292,0.598,0.547,0.757c0.256,0.16,0.638,0.285,1.147,0.375v0.734h-6.041v-0.734
				c0.38-0.12,0.652-0.225,0.817-0.315c0.164-0.091,0.307-0.215,0.427-0.375c0.12-0.16,0.21-0.405,0.27-0.734
				c0.06-0.33,0.09-0.845,0.09-1.545v-6.535c0-0.639-0.01-1.154-0.029-1.544c-0.021-0.39-0.091-0.702-0.21-0.938
				c-0.12-0.234-0.303-0.409-0.547-0.523c-0.245-0.116-0.593-0.213-1.042-0.292v-0.781l3.507-0.15h0.915L383.282,451.19z"/>
			<path style="fill:#99A7AA;" d="M402.649,449.046v3.134h-1.903c-0.171-0.649-0.38-1.162-0.63-1.537
				c-0.25-0.374-0.54-0.637-0.869-0.787c-0.33-0.149-0.74-0.224-1.23-0.224c-0.7,0-1.319,0.224-1.858,0.674
				c-0.54,0.45-0.968,1.134-1.282,2.053c-0.315,0.921-0.472,2.045-0.472,3.373c0,0.851,0.059,1.627,0.18,2.331
				c0.119,0.705,0.324,1.307,0.614,1.807c0.29,0.5,0.675,0.89,1.154,1.169c0.48,0.28,1.074,0.42,1.784,0.42
				c0.689,0,1.331-0.135,1.926-0.405c0.595-0.27,1.212-0.744,1.852-1.424l0.854,0.989c-0.51,0.561-0.96,0.992-1.35,1.297
				c-0.39,0.306-0.807,0.56-1.251,0.765c-0.445,0.205-0.885,0.355-1.319,0.449c-0.435,0.096-0.907,0.143-1.417,0.143
				c-1.889,0-3.333-0.627-4.332-1.881c-0.999-1.254-1.499-3.065-1.499-5.434c0-1.479,0.28-2.791,0.84-3.935
				c0.56-1.145,1.344-2.027,2.354-2.646c1.009-0.619,2.174-0.93,3.492-0.93c0.819,0,1.576,0.048,2.272,0.143
				C401.253,448.685,401.949,448.837,402.649,449.046z"/>
			<path style="fill:#99A7AA;" d="M405.018,462.298c0.39-0.12,0.667-0.225,0.832-0.315c0.165-0.091,0.305-0.215,0.42-0.375
				c0.114-0.16,0.204-0.405,0.27-0.734c0.065-0.33,0.098-0.845,0.098-1.545v-6.535c0-0.639-0.01-1.154-0.029-1.544
				c-0.021-0.39-0.091-0.702-0.211-0.938c-0.119-0.234-0.302-0.409-0.547-0.523c-0.245-0.116-0.592-0.213-1.042-0.292v-0.795
				l3.493-0.136h0.914v10.719c0,0.858,0.04,1.456,0.12,1.79c0.08,0.336,0.232,0.591,0.457,0.765
				c0.225,0.175,0.593,0.328,1.102,0.458v0.734h-5.876V462.298z M409.305,442.826v2.907h-2.758v-2.907H409.305z"/>
			<path style="fill:#99A7AA;" d="M422.211,460.888l-0.225-0.059c-0.869,0.889-1.687,1.519-2.45,1.889
				c-0.766,0.369-1.577,0.554-2.437,0.554c-0.76,0-1.429-0.147-2.009-0.442c-0.58-0.294-1.024-0.708-1.334-1.243
				c-0.309-0.535-0.465-1.152-0.465-1.852c0-1.459,0.723-2.586,2.166-3.381c1.444-0.794,3.61-1.256,6.498-1.386v-0.975
				c0-1.039-0.1-1.858-0.3-2.458c-0.2-0.601-0.515-1.04-0.944-1.319c-0.43-0.279-1.004-0.42-1.724-0.42
				c-0.779,0-1.406,0.205-1.881,0.615c-0.475,0.409-0.832,1.023-1.072,1.843h-1.964v-1.948c0.96-0.499,1.76-0.867,2.399-1.103
				c0.639-0.233,1.278-0.419,1.918-0.554c0.64-0.135,1.289-0.203,1.949-0.203c0.989,0,1.783,0.158,2.383,0.473
				c0.6,0.314,1.049,0.797,1.35,1.446c0.299,0.65,0.449,1.63,0.449,2.938v5.217c0,0.74,0.004,1.262,0.014,1.567
				c0.01,0.305,0.041,0.587,0.092,0.847c0.049,0.261,0.125,0.467,0.223,0.622c0.102,0.154,0.25,0.287,0.443,0.397
				c0.195,0.109,0.512,0.225,0.953,0.345v0.734h-4.107L422.211,460.888z M421.956,456.196c-2.028,0.021-3.547,0.29-4.557,0.81
				c-1.009,0.521-1.514,1.305-1.514,2.354c0,0.57,0.114,1.02,0.345,1.35c0.229,0.329,0.52,0.557,0.869,0.682
				c0.35,0.125,0.765,0.188,1.244,0.188c0.68,0,1.297-0.165,1.852-0.495c0.555-0.33,0.986-0.749,1.297-1.259
				c0.31-0.51,0.464-1.014,0.464-1.514V456.196z"/>
			<path style="fill:#99A7AA;" d="M432.539,459.285c0,0.858,0.041,1.456,0.121,1.79c0.078,0.336,0.232,0.591,0.455,0.765
				c0.227,0.175,0.594,0.328,1.104,0.458v0.734h-5.951v-0.734c0.5-0.13,0.848-0.265,1.041-0.405c0.195-0.14,0.334-0.307,0.42-0.502
				c0.086-0.194,0.145-0.46,0.18-0.795c0.035-0.335,0.053-0.771,0.053-1.311v-12.547c0-0.96-0.008-1.629-0.023-2.009
				c-0.014-0.38-0.055-0.702-0.117-0.967c-0.066-0.265-0.156-0.473-0.27-0.622c-0.117-0.149-0.271-0.27-0.467-0.36
				c-0.193-0.089-0.547-0.18-1.057-0.27v-0.779l3.613-0.149h0.898V459.285z"/>
			<path style="fill:#99A7AA;" d="M447.693,462.583v3.162c0,0.65,0.023,1.135,0.068,1.455c0.045,0.318,0.123,0.571,0.238,0.757
				c0.115,0.185,0.279,0.337,0.496,0.457c0.215,0.119,0.563,0.229,1.041,0.329v0.734h-6.115v-0.734
				c0.359-0.101,0.652-0.202,0.877-0.307c0.225-0.106,0.398-0.261,0.516-0.465c0.121-0.205,0.201-0.482,0.24-0.832
				c0.039-0.351,0.061-0.815,0.061-1.395v-12.861c0-0.719-0.01-1.231-0.031-1.536c-0.02-0.305-0.059-0.558-0.117-0.757
				c-0.061-0.2-0.148-0.365-0.264-0.495c-0.115-0.129-0.272-0.24-0.465-0.329c-0.193-0.091-0.516-0.181-0.967-0.27v-0.795
				l3.523-0.136h0.914l-0.195,2.443l0.225,0.061c0.619-0.629,1.109-1.087,1.469-1.372c0.359-0.284,0.732-0.522,1.117-0.712
				c0.385-0.189,0.754-0.324,1.109-0.405c0.353-0.079,0.732-0.119,1.133-0.119c1.647,0,2.914,0.617,3.799,1.85
				c0.885,1.235,1.326,3.041,1.326,5.419c0,1.649-0.25,3.036-0.748,4.16c-0.502,1.125-1.227,1.969-2.182,2.533
				c-0.955,0.564-2.092,0.847-3.41,0.847c-0.74,0-1.41-0.062-2.008-0.187C448.744,462.959,448.193,462.792,447.693,462.583z
				 M447.693,457.636c0,0.959,0.06,1.698,0.182,2.219c0.119,0.52,0.33,0.941,0.635,1.267c0.307,0.325,0.664,0.566,1.08,0.727
				c0.416,0.16,0.961,0.24,1.643,0.24c1.207,0,2.117-0.502,2.727-1.507c0.609-1.004,0.914-2.485,0.914-4.444
				c0-3.918-1.145-5.876-3.432-5.876c-0.56,0-1.041,0.087-1.447,0.262c-0.404,0.176-0.807,0.458-1.205,0.848
				c-0.4,0.39-0.684,0.767-0.85,1.132c-0.162,0.364-0.246,0.757-0.246,1.177V457.636z"/>
			<path style="fill:#99A7AA;" d="M464.752,451.19l0.209,0.045c0.553-0.67,1.061-1.197,1.531-1.581
				c0.469-0.386,0.975-0.683,1.522-0.892c0.543-0.21,1.16-0.316,1.851-0.316c0.578,0,1.102,0.03,1.572,0.091v3.447h-1.693
				c-0.24-0.54-0.494-0.932-0.764-1.177c-0.27-0.244-0.639-0.366-1.109-0.366c-0.361,0-0.719,0.104-1.072,0.314
				c-0.354,0.209-0.697,0.514-1.027,0.914c-0.328,0.399-0.557,0.774-0.682,1.124c-0.125,0.35-0.185,0.765-0.185,1.244v5.247
				c0,0.909,0.053,1.536,0.164,1.881c0.109,0.345,0.291,0.598,0.545,0.757c0.258,0.16,0.639,0.285,1.148,0.375v0.734h-6.041v-0.734
				c0.381-0.12,0.652-0.225,0.816-0.315c0.166-0.091,0.307-0.215,0.428-0.375c0.121-0.16,0.209-0.405,0.27-0.734
				c0.061-0.33,0.09-0.845,0.09-1.545v-6.535c0-0.639-0.01-1.154-0.029-1.544c-0.02-0.39-0.09-0.702-0.209-0.938
				c-0.121-0.234-0.305-0.409-0.549-0.523c-0.244-0.116-0.592-0.213-1.041-0.292v-0.781l3.506-0.15h0.916L464.752,451.19z"/>
			<path style="fill:#99A7AA;" d="M479.473,463.272c-2.078,0-3.666-0.611-4.758-1.836c-1.096-1.224-1.642-3.035-1.642-5.435
				c0-1.647,0.287-3.042,0.861-4.182c0.574-1.139,1.363-1.986,2.361-2.54c0.998-0.556,2.139-0.833,3.418-0.833
				c2.139,0,3.758,0.622,4.855,1.866c1.1,1.245,1.65,3.031,1.65,5.359c0,1.659-0.275,3.058-0.824,4.197
				c-0.551,1.14-1.33,1.991-2.34,2.556C482.045,462.989,480.852,463.272,479.473,463.272z M475.906,455.687
				c0,2.059,0.326,3.641,0.98,4.744c0.656,1.104,1.592,1.657,2.811,1.657c0.67,0,1.24-0.162,1.709-0.487
				c0.471-0.324,0.854-0.762,1.146-1.311c0.295-0.55,0.508-1.186,0.639-1.912c0.127-0.724,0.193-1.48,0.193-2.27
				c0-1.47-0.162-2.689-0.486-3.658c-0.324-0.969-0.767-1.681-1.326-2.137c-0.561-0.454-1.199-0.681-1.92-0.681
				c-1.209,0-2.135,0.523-2.779,1.573C476.228,452.254,475.906,453.749,475.906,455.687z"/>
			<path style="fill:#99A7AA;" d="M493.309,462.583v3.162c0,0.65,0.023,1.135,0.066,1.455c0.045,0.318,0.125,0.571,0.24,0.757
				c0.113,0.185,0.279,0.337,0.494,0.457c0.215,0.119,0.563,0.229,1.043,0.329v0.734h-6.117v-0.734
				c0.361-0.101,0.652-0.202,0.877-0.307c0.227-0.106,0.398-0.261,0.518-0.465c0.119-0.205,0.199-0.482,0.24-0.832
				c0.039-0.351,0.061-0.815,0.061-1.395v-12.861c0-0.719-0.01-1.231-0.031-1.536c-0.02-0.305-0.06-0.558-0.119-0.757
				c-0.059-0.2-0.146-0.365-0.264-0.495c-0.113-0.129-0.27-0.24-0.463-0.329c-0.195-0.091-0.518-0.181-0.967-0.27v-0.795
				l3.523-0.136h0.914l-0.197,2.443l0.226,0.061c0.619-0.629,1.109-1.087,1.469-1.372c0.359-0.284,0.732-0.522,1.115-0.712
				c0.385-0.189,0.756-0.324,1.111-0.405c0.353-0.079,0.732-0.119,1.131-0.119c1.648,0,2.916,0.617,3.799,1.85
				c0.885,1.235,1.328,3.041,1.328,5.419c0,1.649-0.25,3.036-0.75,4.16c-0.5,1.125-1.227,1.969-2.182,2.533
				c-0.955,0.564-2.09,0.847-3.41,0.847c-0.74,0-1.408-0.062-2.008-0.187C494.357,462.959,493.807,462.792,493.309,462.583z
				 M493.309,457.636c0,0.959,0.059,1.698,0.18,2.219c0.121,0.52,0.332,0.941,0.637,1.267c0.305,0.325,0.664,0.566,1.08,0.727
				c0.414,0.16,0.961,0.24,1.641,0.24c1.209,0,2.119-0.502,2.729-1.507c0.609-1.004,0.914-2.485,0.914-4.444
				c0-3.918-1.145-5.876-3.432-5.876c-0.56,0-1.043,0.087-1.449,0.262c-0.402,0.176-0.805,0.458-1.205,0.848
				c-0.4,0.39-0.684,0.767-0.848,1.132c-0.164,0.364-0.246,0.757-0.246,1.177V457.636z"/>
			<path style="fill:#99A7AA;" d="M518.297,460.483c-0.639,0.67-1.229,1.194-1.762,1.574c-0.533,0.381-1.121,0.678-1.76,0.892
				c-0.641,0.215-1.346,0.322-2.115,0.322c-2.059,0-3.611-0.617-4.662-1.851c-1.047-1.234-1.574-3.056-1.574-5.464
				c0-1.489,0.268-2.804,0.805-3.942c0.533-1.14,1.295-2.02,2.283-2.639c0.99-0.619,2.131-0.93,3.42-0.93
				c1.008,0,1.867,0.16,2.576,0.48c0.711,0.319,1.277,0.757,1.703,1.312c0.424,0.554,0.754,1.254,0.988,2.099
				c0.234,0.844,0.367,1.946,0.399,3.306h-9.443v0.27c0,1.179,0.131,2.171,0.395,2.976c0.266,0.805,0.701,1.434,1.305,1.889
				c0.606,0.454,1.393,0.682,2.363,0.682c0.818,0,1.555-0.152,2.211-0.457c0.654-0.305,1.307-0.802,1.953-1.491L518.297,460.483z
				 M515.779,454.398c-0.06-1.08-0.195-1.962-0.404-2.646c-0.211-0.684-0.525-1.209-0.945-1.574
				c-0.42-0.363-0.969-0.546-1.648-0.546c-1.031,0-1.852,0.411-2.467,1.236c-0.613,0.824-0.977,2.001-1.088,3.53H515.779z"/>
			<path style="fill:#99A7AA;" d="M525.342,451.19l0.211,0.045c0.549-0.67,1.059-1.197,1.529-1.581
				c0.469-0.386,0.977-0.683,1.52-0.892c0.545-0.21,1.162-0.316,1.852-0.316c0.58,0,1.106,0.03,1.574,0.091v3.447h-1.695
				c-0.238-0.54-0.492-0.932-0.762-1.177c-0.27-0.244-0.641-0.366-1.111-0.366c-0.357,0-0.715,0.104-1.07,0.314
				c-0.355,0.209-0.697,0.514-1.027,0.914c-0.33,0.399-0.557,0.774-0.682,1.124c-0.125,0.35-0.188,0.765-0.188,1.244v5.247
				c0,0.909,0.055,1.536,0.164,1.881c0.111,0.345,0.293,0.598,0.549,0.757c0.254,0.16,0.637,0.285,1.146,0.375v0.734h-6.041v-0.734
				c0.379-0.12,0.65-0.225,0.815-0.315c0.166-0.091,0.309-0.215,0.428-0.375c0.121-0.16,0.211-0.405,0.27-0.734
				c0.061-0.33,0.092-0.845,0.092-1.545v-6.535c0-0.639-0.01-1.154-0.031-1.544c-0.02-0.39-0.09-0.702-0.209-0.938
				c-0.121-0.234-0.303-0.409-0.549-0.523c-0.244-0.116-0.592-0.213-1.039-0.292v-0.781l3.508-0.15h0.914L525.342,451.19z"/>
			<path style="fill:#99A7AA;" d="M533.092,449.451c0.498-0.08,0.904-0.22,1.213-0.419c0.31-0.2,0.553-0.458,0.729-0.773
				c0.174-0.314,0.313-0.709,0.41-1.184c0.102-0.475,0.207-1.167,0.316-2.076h2.129v3.703h4.84v1.514h-4.84v6.671
				c0,0.97,0.039,1.741,0.119,2.315c0.08,0.574,0.228,1.024,0.451,1.35c0.219,0.325,0.467,0.557,0.748,0.696
				c0.281,0.14,0.639,0.21,1.08,0.21c0.4,0,0.775-0.083,1.123-0.248c0.35-0.164,0.695-0.401,1.035-0.711l0.674,0.809
				c-0.709,0.689-1.383,1.189-2.016,1.498c-0.635,0.31-1.293,0.465-1.971,0.465c-1.289,0-2.248-0.382-2.879-1.146
				c-0.629-0.766-0.943-1.962-0.943-3.591v-8.319h-2.219V449.451z"/>
			<path style="fill:#99A7AA;" d="M550.719,464.261c-0.549,1.239-1.084,2.244-1.604,3.014c-0.519,0.77-1.092,1.349-1.717,1.738
				c-0.625,0.391-1.365,0.585-2.225,0.585c-0.551,0-1.17-0.064-1.859-0.194v-2.969h1.334c0.121,0.41,0.27,0.694,0.449,0.854
				c0.18,0.16,0.439,0.239,0.779,0.239c0.299,0,0.566-0.057,0.803-0.172c0.234-0.115,0.479-0.313,0.734-0.592
				c0.256-0.28,0.555-0.709,0.9-1.29c0.344-0.579,0.73-1.313,1.16-2.203l-4.197-11.287c-0.269-0.729-0.486-1.238-0.652-1.528
				c-0.164-0.291-0.342-0.51-0.531-0.66c-0.19-0.149-0.481-0.271-0.869-0.359v-0.734h6.1v0.734
				c-0.469,0.109-0.799,0.218-0.988,0.322c-0.189,0.105-0.328,0.239-0.42,0.404c-0.09,0.165-0.135,0.378-0.135,0.637
				c0,0.271,0.031,0.551,0.098,0.84c0.064,0.29,0.166,0.63,0.307,1.02l2.67,7.51l2.996-7.194c0.17-0.4,0.303-0.768,0.398-1.103
				c0.094-0.334,0.141-0.647,0.141-0.938c0-0.429-0.115-0.754-0.352-0.974c-0.234-0.22-0.643-0.395-1.223-0.524v-0.734h5.609v0.734
				c-0.391,0.079-0.691,0.202-0.902,0.367c-0.209,0.165-0.418,0.425-0.629,0.779c-0.209,0.354-0.459,0.852-0.748,1.491
				L550.719,464.261z"/>
		</g>
	</g>
	<g>
		<path style="fill:#3376BD;" d="M451.969,278.921h-51.4v6.576h52.85c7.082,0,13.25,3.707,16.516,9.194
			C468.772,285.795,461.184,278.921,451.969,278.921z"/>
		<g>
			<path style="fill:#3376BD;" d="M411.323,215.995h-20.484c-9.213,0-16.805,6.876-17.966,15.772
				c3.266-5.486,9.433-9.194,16.517-9.194h21.934V215.995z"/>
			<path style="fill:#3376BD;" d="M451.969,215.995H417.9v6.578h35.518c7.082,0,13.25,3.708,16.516,9.193
				C468.772,222.87,461.184,215.995,451.969,215.995z"/>
		</g>
		<path style="fill:#3376BD;" d="M540.458,334.757h-60.702v6.577h62.152c7.082,0,13.249,3.708,16.517,9.193
			C557.263,341.631,549.672,334.757,540.458,334.757z"/>
		<path style="fill:#3376BD;" d="M540.458,238.771h-60.702v6.577h62.152c7.082,0,13.249,3.708,16.517,9.194
			C557.263,245.646,549.672,238.771,540.458,238.771z"/>
		<path style="fill:#3376BD;" d="M540.458,271.833h-60.702v6.576h62.152c7.082,0,13.249,3.707,16.517,9.195
			C557.263,278.708,549.672,271.833,540.458,271.833z"/>
		<path style="fill:#3376BD;" d="M540.458,303.295h-60.702v6.575h62.152c7.082,0,13.249,3.71,16.517,9.196
			C557.263,310.169,549.672,303.295,540.458,303.295z"/>
		<g>
			<rect x="479.756" y="255.301" style="fill:#3376BD;" width="29.061" height="6.577"/>
			<path style="fill:#3376BD;" d="M540.458,255.301h-25.062v6.577h26.512c7.082,0,13.249,3.709,16.517,9.196
				C557.263,262.176,549.672,255.301,540.458,255.301z"/>
		</g>
		<g>
			<rect x="479.756" y="287.564" style="fill:#3376BD;" width="8.799" height="6.577"/>
			<path style="fill:#3376BD;" d="M540.458,287.564h-45.326v6.577h46.776c7.082,0,13.249,3.708,16.517,9.193
				C557.263,294.439,549.672,287.564,540.458,287.564z"/>
		</g>
		<g>
			<rect x="479.756" y="319.023" style="fill:#3376BD;" width="39.334" height="6.579"/>
			<path style="fill:#3376BD;" d="M540.458,319.023h-14.79v6.579h16.24c7.082,0,13.249,3.707,16.517,9.194
				C557.263,325.901,549.672,319.023,540.458,319.023z"/>
		</g>
		<g>
			<rect x="479.756" y="350.486" style="fill:#3376BD;" width="8.799" height="6.576"/>
			<path style="fill:#3376BD;" d="M540.458,350.486h-45.326v6.576h46.776c7.082,0,13.249,3.71,16.517,9.196
				C557.263,357.361,549.672,350.486,540.458,350.486z"/>
		</g>
		<g>
			<path style="fill:#3376BD;" d="M540.458,222.24h-41.571v6.578h43.022c7.082,0,13.249,3.707,16.517,9.193
				C557.263,229.115,549.672,222.24,540.458,222.24z"/>
			<rect x="479.756" y="222.24" style="fill:#3376BD;" width="12.555" height="6.578"/>
		</g>
		<g>
			<path style="fill:#3376BD;" d="M404.747,341.843h-13.908c-9.213,0-16.805,6.876-17.966,15.771
				c3.266-5.486,9.433-9.195,16.517-9.195h15.358V341.843z"/>
			<path style="fill:#3376BD;" d="M451.969,341.843h-40.646v6.576h42.096c7.082,0,13.25,3.708,16.516,9.195
				C468.772,348.718,461.184,341.843,451.969,341.843z"/>
		</g>
		<g>
			<path style="fill:#3376BD;" d="M429.276,310.381h-38.438c-9.213,0-16.805,6.876-17.966,15.773
				c3.266-5.486,9.433-9.194,16.517-9.194h39.887V310.381z"/>
			<path style="fill:#3376BD;" d="M451.969,310.381h-16.116v6.578h17.566c7.082,0,13.25,3.707,16.516,9.193
				C468.772,317.255,461.184,310.381,451.969,310.381z"/>
		</g>
		<g>
			<path style="fill:#3376BD;" d="M451.969,247.457h-9.805v6.576h11.255c7.082,0,13.25,3.71,16.516,9.195
				C468.772,254.332,461.184,247.457,451.969,247.457z"/>
			<path style="fill:#3376BD;" d="M435.586,247.457h-44.747c-9.213,0-16.805,6.876-17.966,15.773
				c3.266-5.487,9.433-9.197,16.517-9.197h46.196V247.457z"/>
		</g>
		<path style="fill:#3376BD;" d="M451.969,183.734h-51.932v6.578h53.382c7.082,0,13.25,3.706,16.516,9.193
			C468.772,190.609,461.184,183.734,451.969,183.734z"/>
		<g>
			<path style="fill:#3376BD;" d="M425.987,167.203h-35.148c-9.213,0-16.805,6.876-17.966,15.772
				c3.266-5.486,9.433-9.195,16.517-9.195h36.598V167.203z"/>
			<path style="fill:#3376BD;" d="M451.969,167.203h-19.404v6.577h20.854c7.082,0,13.25,3.707,16.516,9.194
				C468.772,174.078,461.184,167.203,451.969,167.203z"/>
		</g>
		<path style="fill:#3376BD;" d="M540.458,350.486h-2.05v6.576h3.5c7.082,0,13.249,3.71,16.517,9.196
			C557.263,357.361,549.672,350.486,540.458,350.486z"/>
		<path style="fill:#3376BD;" d="M389.39,332.69h64.029c7.082,0,13.25,3.707,16.516,9.193c-1.162-8.896-8.751-15.771-17.966-15.771
			h-61.13c-9.213,0-16.805,6.877-17.966,15.773C376.139,336.397,382.306,332.69,389.39,332.69z"/>
		<path style="fill:#3376BD;" d="M389.39,301.226h64.029c7.082,0,13.25,3.708,16.516,9.195c-1.162-8.896-8.751-15.771-17.966-15.771
			h-61.13c-9.213,0-16.805,6.876-17.966,15.771C376.139,304.936,382.306,301.226,389.39,301.226z"/>
		<path style="fill:#3376BD;" d="M389.39,269.766h64.029c7.082,0,13.25,3.708,16.516,9.194c-1.162-8.897-8.751-15.772-17.966-15.772
			h-61.13c-9.213,0-16.805,6.876-17.966,15.772C376.139,273.474,382.306,269.766,389.39,269.766z"/>
		<path style="fill:#3376BD;" d="M389.39,238.305h64.029c7.082,0,13.25,3.706,16.516,9.193c-1.162-8.896-8.751-15.771-17.966-15.771
			h-61.13c-9.213,0-16.805,6.876-17.966,15.772C376.139,242.012,382.306,238.305,389.39,238.305z"/>
		<path style="fill:#3376BD;" d="M389.39,206.84h64.029c7.082,0,13.25,3.709,16.516,9.196c-1.162-8.896-8.751-15.771-17.966-15.771
			h-61.13c-9.213,0-16.805,6.877-17.966,15.772C376.139,210.55,382.306,206.84,389.39,206.84z"/>
		<path style="fill:#3376BD;" d="M389.39,157.249h64.029c7.082,0,13.25,3.708,16.516,9.193c-1.162-8.896-8.751-15.771-17.966-15.771
			h-61.13c-9.213,0-16.805,6.876-17.966,15.772C376.139,160.958,382.306,157.249,389.39,157.249z"/>
		<g>
			<path style="fill:#3376BD;" d="M451.969,278.921h-2.047v6.576h3.497c7.082,0,13.25,3.707,16.516,9.194
				C468.772,285.795,461.184,278.921,451.969,278.921z"/>
			<path style="fill:#3376BD;" d="M451.969,150.671h-2.047v6.578h3.497c7.082,0,13.25,3.708,16.516,9.193
				C468.772,157.546,461.184,150.671,451.969,150.671z"/>
			<path style="fill:#3376BD;" d="M451.969,294.65h-2.047v6.575h3.497c7.082,0,13.25,3.708,16.516,9.195
				C468.772,301.525,461.184,294.65,451.969,294.65z"/>
			<path style="fill:#3376BD;" d="M469.935,341.883c-1.162-8.896-8.751-15.771-17.966-15.771h-2.047v6.577h3.497
				C460.501,332.69,466.669,336.397,469.935,341.883z"/>
			<path style="fill:#3376BD;" d="M451.969,310.381h-2.047v6.578h3.497c7.082,0,13.25,3.707,16.516,9.193
				C468.772,317.255,461.184,310.381,451.969,310.381z"/>
			<path style="fill:#3376BD;" d="M451.969,247.457h-2.047v6.576h3.497c7.082,0,13.25,3.71,16.516,9.195
				C468.772,254.332,461.184,247.457,451.969,247.457z"/>
			<path style="fill:#3376BD;" d="M451.969,263.188h-2.047v6.578h3.497c7.082,0,13.25,3.708,16.516,9.194
				C468.772,270.063,461.184,263.188,451.969,263.188z"/>
			<path style="fill:#3376BD;" d="M451.969,183.734h-2.047v6.578h3.497c7.082,0,13.25,3.706,16.516,9.193
				C468.772,190.609,461.184,183.734,451.969,183.734z"/>
			<path style="fill:#3376BD;" d="M451.969,167.203h-2.047v6.577h3.497c7.082,0,13.25,3.707,16.516,9.194
				C468.772,174.078,461.184,167.203,451.969,167.203z"/>
			<path style="fill:#3376BD;" d="M469.935,357.614c-1.162-8.896-8.751-15.771-17.966-15.771h-2.047v6.576h3.497
				C460.501,348.419,466.669,352.127,469.935,357.614z"/>
			<path style="fill:#3376BD;" d="M451.969,231.727h-2.047v6.578h3.497c7.082,0,13.25,3.706,16.516,9.193
				C468.772,238.602,461.184,231.727,451.969,231.727z"/>
			<path style="fill:#3376BD;" d="M451.969,215.995h-2.047v6.578h3.497c7.082,0,13.25,3.708,16.516,9.193
				C468.772,222.87,461.184,215.995,451.969,215.995z"/>
			<path style="fill:#3376BD;" d="M451.969,200.265h-2.047v6.576h3.497c7.082,0,13.25,3.709,16.516,9.196
				C468.772,207.14,461.184,200.265,451.969,200.265z"/>
		</g>
		<g>
			<path style="fill:#3376BD;" d="M390.839,278.921h2.049v6.576h-3.499c-7.082,0-13.249,3.707-16.516,9.194
				C374.035,285.795,381.626,278.921,390.839,278.921z"/>
			<path style="fill:#3376BD;" d="M390.839,150.671h2.049v6.578h-3.499c-7.082,0-13.249,3.708-16.516,9.193
				C374.035,157.546,381.626,150.671,390.839,150.671z"/>
			<path style="fill:#3376BD;" d="M390.839,294.65h2.049v6.575h-3.499c-7.082,0-13.249,3.708-16.516,9.195
				C374.035,301.525,381.626,294.65,390.839,294.65z"/>
			<path style="fill:#3376BD;" d="M372.873,341.883c1.162-8.896,8.753-15.771,17.966-15.771h2.049v6.577h-3.499
				C382.307,332.69,376.14,336.397,372.873,341.883z"/>
			<path style="fill:#3376BD;" d="M390.839,310.381h2.049v6.578h-3.499c-7.082,0-13.249,3.707-16.516,9.193
				C374.035,317.255,381.626,310.381,390.839,310.381z"/>
			<path style="fill:#3376BD;" d="M390.839,247.457h2.049v6.576h-3.499c-7.082,0-13.249,3.71-16.516,9.195
				C374.035,254.332,381.626,247.457,390.839,247.457z"/>
			<path style="fill:#3376BD;" d="M390.839,263.188h2.049v6.578h-3.499c-7.082,0-13.249,3.708-16.516,9.194
				C374.035,270.063,381.626,263.188,390.839,263.188z"/>
			<path style="fill:#3376BD;" d="M390.839,183.734h2.049v6.578h-3.499c-7.082,0-13.249,3.706-16.516,9.193
				C374.035,190.609,381.626,183.734,390.839,183.734z"/>
			<path style="fill:#3376BD;" d="M390.839,167.203h2.049v6.577h-3.499c-7.082,0-13.249,3.707-16.516,9.194
				C374.035,174.078,381.626,167.203,390.839,167.203z"/>
			<path style="fill:#3376BD;" d="M372.873,357.614c1.162-8.896,8.753-15.771,17.966-15.771h2.049v6.576h-3.499
				C382.307,348.419,376.14,352.127,372.873,357.614z"/>
			<path style="fill:#3376BD;" d="M390.839,231.727h2.049v6.578h-3.499c-7.082,0-13.249,3.706-16.516,9.193
				C374.035,238.602,381.626,231.727,390.839,231.727z"/>
			<path style="fill:#3376BD;" d="M390.839,215.995h2.049v6.578h-3.499c-7.082,0-13.249,3.708-16.516,9.193
				C374.035,222.87,381.626,215.995,390.839,215.995z"/>
			<path style="fill:#3376BD;" d="M390.839,200.265h2.049v6.576h-3.499c-7.082,0-13.249,3.709-16.516,9.196
				C374.035,207.14,381.626,200.265,390.839,200.265z"/>
		</g>
		<path style="fill:#3376BD;" d="M540.458,222.24h-2.05v6.578h3.5c7.082,0,13.249,3.707,16.517,9.193
			C557.263,229.115,549.672,222.24,540.458,222.24z"/>
		<path style="fill:#3376BD;" d="M540.458,319.023h-2.05v6.579h3.5c7.082,0,13.249,3.707,16.517,9.194
			C557.263,325.901,549.672,319.023,540.458,319.023z"/>
		<path style="fill:#3376BD;" d="M540.458,334.757h-2.05v6.577h3.5c7.082,0,13.249,3.708,16.517,9.193
			C557.263,341.631,549.672,334.757,540.458,334.757z"/>
		<path style="fill:#3376BD;" d="M540.458,255.301h-2.05v6.577h3.5c7.082,0,13.249,3.709,16.517,9.196
			C557.263,262.176,549.672,255.301,540.458,255.301z"/>
		<path style="fill:#3376BD;" d="M540.458,238.771h-2.05v6.577h3.5c7.082,0,13.249,3.708,16.517,9.194
			C557.263,245.646,549.672,238.771,540.458,238.771z"/>
		<path style="fill:#3376BD;" d="M540.458,303.295h-2.05v6.575h3.5c7.082,0,13.249,3.71,16.517,9.196
			C557.263,310.169,549.672,303.295,540.458,303.295z"/>
		<path style="fill:#3376BD;" d="M540.458,287.564h-2.05v6.577h3.5c7.082,0,13.249,3.708,16.517,9.193
			C557.263,294.439,549.672,287.564,540.458,287.564z"/>
		<path style="fill:#3376BD;" d="M540.458,271.833h-2.05v6.576h3.5c7.082,0,13.249,3.707,16.517,9.195
			C557.263,278.708,549.672,271.833,540.458,271.833z"/>
		<g>
			<path style="fill:#3376BD;" d="M362.133,260.278h-62.153c-7.082,0-13.25,3.708-16.515,9.196
				c1.161-8.898,8.752-15.772,17.966-15.772h60.702V260.278z"/>
			<path style="fill:#3376BD;" d="M301.431,303.295h60.702v6.575h-62.153c-7.082,0-13.25,3.71-16.515,9.196
				C284.626,310.169,292.217,303.295,301.431,303.295z"/>
			<path style="fill:#3376BD;" d="M301.431,334.757h60.702v6.577h-62.153c-7.082,0-13.25,3.708-16.515,9.193
				C284.626,341.631,292.217,334.757,301.431,334.757z"/>
			<g>
				<rect x="349.602" y="286.764" style="fill:#3376BD;" width="12.531" height="6.578"/>
				<path style="fill:#3376BD;" d="M301.431,286.764h41.592v6.578h-43.043c-7.082,0-13.25,3.706-16.515,9.192
					C284.626,293.639,292.217,286.764,301.431,286.764z"/>
			</g>
			<g>
				<rect x="326.087" y="270.233" style="fill:#3376BD;" width="36.046" height="6.577"/>
				<path style="fill:#3376BD;" d="M301.431,270.233h18.08v6.577h-19.531c-7.082,0-13.25,3.708-16.515,9.193
					C284.626,277.107,292.217,270.233,301.431,270.233z"/>
			</g>
			<g>
				<rect x="326.087" y="319.023" style="fill:#3376BD;" width="36.046" height="6.579"/>
				<path style="fill:#3376BD;" d="M301.431,319.023h18.08v6.579h-19.531c-7.082,0-13.25,3.707-16.515,9.194
					C284.626,325.901,292.217,319.023,301.431,319.023z"/>
			</g>
			<g>
				<rect x="349.602" y="350.486" style="fill:#3376BD;" width="12.531" height="6.576"/>
				<path style="fill:#3376BD;" d="M301.431,350.486h41.592v6.576h-43.043c-7.082,0-13.25,3.71-16.515,9.196
					C284.626,357.361,292.217,350.486,301.431,350.486z"/>
			</g>
			<path style="fill:#3376BD;" d="M301.431,253.702h2.05v6.576h-3.501c-7.082,0-13.25,3.708-16.515,9.196
				C284.626,260.577,292.217,253.702,301.431,253.702z"/>
			<path style="fill:#3376BD;" d="M301.431,350.486h2.05v6.576h-3.501c-7.082,0-13.25,3.71-16.515,9.196
				C284.626,357.361,292.217,350.486,301.431,350.486z"/>
			<path style="fill:#3376BD;" d="M301.431,286.764h2.05v6.578h-3.501c-7.082,0-13.25,3.706-16.515,9.192
				C284.626,293.639,292.217,286.764,301.431,286.764z"/>
			<path style="fill:#3376BD;" d="M301.431,270.233h2.05v6.577h-3.501c-7.082,0-13.25,3.708-16.515,9.193
				C284.626,277.107,292.217,270.233,301.431,270.233z"/>
			<path style="fill:#3376BD;" d="M301.431,334.757h2.05v6.577h-3.501c-7.082,0-13.25,3.708-16.515,9.193
				C284.626,341.631,292.217,334.757,301.431,334.757z"/>
			<path style="fill:#3376BD;" d="M301.431,319.023h2.05v6.579h-3.501c-7.082,0-13.25,3.707-16.515,9.194
				C284.626,325.901,292.217,319.023,301.431,319.023z"/>
			<path style="fill:#3376BD;" d="M301.431,303.295h2.05v6.575h-3.501c-7.082,0-13.25,3.71-16.515,9.196
				C284.626,310.169,292.217,303.295,301.431,303.295z"/>
		</g>
	</g>
</g>
</svg>
